<svg id="Layer_1" data-name="Layer 1" xmlns="http://www.w3.org/2000/svg" xmlns:xlink="http://www.w3.org/1999/xlink" viewBox="0 0 2000 1500"><defs><style>.cls-1{fill:url(#linear-gradient);}</style><linearGradient id="linear-gradient" x1="1000" y1="791.89" x2="1000" y2="610.71" gradientUnits="userSpaceOnUse"><stop offset="0" stop-color="#a07122"/><stop offset="0.24" stop-color="#fff172"/><stop offset="0.42" stop-color="#dcc220"/><stop offset="0.58" stop-color="#c68b25"/><stop offset="0.8" stop-color="#fff172"/><stop offset="1" stop-color="#dea044"/></linearGradient></defs><rect width="2000" height="1500"/><path class="cls-1" d="M1300.35,692.51c-.12,2.21,0,4.43,0,6.65,0,5.55.43,5.37-5.18,5.37h-47.06q-23.77,0-47.56,0c-4.43,0-4.44-.06-4.49-4.45,0-2.39-.06-4.78,0-7.16.08-3.52.12-3.52,3.82-3.63.68,0,1.37,0,2.05,0h92.57c.85,0,1.71.06,2.56,0C1299.39,689.08,1300.48,690.06,1300.35,692.51ZM1666.08,615c-1.18.11-2.38,0-3.57,0q-47.54,0-95,.05c-3.15,0-7.17-1.53-9.27.89s-.56,6.22-.59,9.41c0,4.33.08,4.38,4.64,4.39q20.7,0,41.4-.06c1.31,1.81,1,3.91,1,5.93.08,11.74-.15,23.48-.54,35.22-.45,14-.1,27.93-.06,41.89,0,1.66-.43,3.42.64,5q.06,3.59.11,7.16h0c-.39,13.3-.21,26.6,0,39.9q-.15,7.89-.29,15.78c0,1.42,0,2.85,2,2.85,4.92,0,9.84,0,14.76,0,1.61,0,1.87-1.15,1.72-2.47h0c.07-2,.21-4.08.21-6.11q0-69.22-.09-138.45a25.72,25.72,0,0,1,.36-6.61h0c14,0,27.94,0,41.91,0,3.94,0,4-.1,4.08-3.94.06-2.38-.05-4.78.08-7.15S1668.87,614.76,1666.08,615Zm-364.52,0c-1.19.06-2.38,0-3.58,0h-91.09c-12.08,0-12,0-10.84,12,.19,1.9.83,2.82,2.77,2.74,1,0,2,0,3.07,0h96.72c1,0,2.05-.07,3.06,0,2.27.14,3-1,2.92-3.11-.07-2.89,0-5.8.05-8.69C1304.72,615.74,1303.67,614.93,1301.56,615Zm3,156.34c0-1.94-.79-2.84-2.74-2.75-.85,0-1.7,0-2.56,0h-97.67c-1.19,0-2.39,0-3.58.06a1.75,1.75,0,0,0-1.87,1.93c-.06,3.58-.08,7.16-.13,10.74,0,1.54.87,2.06,2.27,2,1.19,0,2.38,0,3.58,0h56.25c14.15,0,28.3,0,42.45,0,4,0,4-.08,4.06-3.87C1304.64,776.83,1304.5,774.1,1304.55,771.38Zm-876.48,1.33c-.12-4-.14-4-3.94-4.09-1,0-2.05,0-3.08,0q-33.29,0-66.57,0c-1.81,0-3.77.59-5.43-.73,0-10.05.09-20.11,0-30.17,0-7,.4-14-.15-20.94h0q0-23.55.07-47.09a2.81,2.81,0,0,1-.43-1.42,8.22,8.22,0,0,1,.43,1.42q.09-25.78.16-51.57c0-.17,0-.34,0-.51a2.16,2.16,0,0,0-2.44-2.53l-7.15,0c-9.09,0-9.08,0-9,9.22q.09,21.19.17,42.38h0q-.43,28.1.07,56.18c-.36,15-.25,30.06,0,45.09h0c-.07,3.24-.19,6.48-.21,9.72,0,6.26-.75,5.84,5.66,5.84h86.54c.86,0,1.72-.07,2.56,0,2.3.2,3-1,2.87-3.06C428.06,777.83,428.14,775.27,428.07,772.71ZM1173,783.44c2.29.21,3-.94,2.87-3.05-.13-2.56,0-5.12-.12-7.68-.11-4-.13-4-3.94-4.08-1,0-2,0-3.07,0q-33.29,0-66.56,0c-1.82,0-3.77.57-5.44-.7,0-12.46.1-24.91.06-37.36,0-5.63.42-11.25-.16-16.87V682.83h0a178.67,178.67,0,0,0,0-18.37h0q0-17.9-.05-35.79c.06-3.58.1-7.16.2-10.74,0-1.84-.59-2.9-2.61-2.88q-6.66.06-13.31,0c-2,0-2.71.93-2.67,2.82.11,4.6.15,9.21.22,13.81h0l0,30.76a114.35,114.35,0,0,0,0,14.34h0c-.33,14.33-.19,28.65,0,43h0c-.37,16.39-.21,32.78,0,49.17h0c-.07,2.89-.19,5.79-.2,8.69,0,6.26-.76,5.83,5.65,5.83q43.27,0,86.53,0C1171.27,783.44,1172.13,783.37,1173,783.44Zm316.33-80c0-3.82-.08-3.89-4.08-3.91-11.93,0-23.85,0-35.78,0-6.81,0-13.63,0-20.44,0-4.37,0-4.38.06-4.41,4.59,0,2,0,4.09,0,6.13.07,4.4.08,4.44,4.52,4.46q20.7.06,41.4.08h0c.09,2.55.21,5.09.25,7.64.1,6.11-.57,12.35.42,18.31,1.31,7.88-1.52,13-7.88,17a89,89,0,0,1-8.89,5c-2.13,1-4.24,2.07-6.36,3.1h0c-20.82,6-41.64,7.41-62.46,0-.52-.76-1.39-.9-2.15-1.25a77.45,77.45,0,0,1-22.57-15.59c-6.11-6.12-10.21-13.51-14.22-21h0c-2.07-5.43-3.22-11.14-4.79-16.72-.06-.26-.14-.54-.23-.82a188.66,188.66,0,0,1,0-21.27,6.18,6.18,0,0,0,.8-4.14c.68-1.65-.09-3.63,1.15-5.15l6.26-15.26h0c1.13-1.67,2.31-3.32,3.4-5a67.39,67.39,0,0,1,18.32-18.89c5.34-3.71,11.33-6.11,17.06-9h0c9-2.66,18.18-4.33,27.65-4a101.4,101.4,0,0,1,24.59,4.07,6.66,6.66,0,0,0,1.22.87,70.46,70.46,0,0,1,29.22,21.61c1.25,1.55,2.11,3.5,4.14,4.7,3.62-2.45,7.2-5.07,11-7.34,2.27-1.36,2.17-2.47.67-4.33-6-7.46-12.5-14.33-20.76-19.35h0c-5.24-2.66-10-6.27-15.46-8.42-21.51-8.39-43.39-9.56-65.5-2.8-8.27,2.53-16.29,5.86-23.28,11.21-8,4.61-14.54,10.95-20.33,18-4.15,5.06-8.12,10.33-10.45,16.58h0c-2.79,5.17-5.28,10.46-6.13,16.37h0a71.52,71.52,0,0,0-1.1,35.82,42.33,42.33,0,0,0,4.22,15.34h0c5.94,16.32,16.62,28.92,30.62,38.91h0A86.44,86.44,0,0,0,1377.7,779c21.34,8.51,43.21,8.62,65.29,3.69,11.71-2.62,22.92-6.62,32.64-14h0c5.09-2.62,8.75-6.81,12.2-11.22a5.77,5.77,0,0,0,1.38-3.72q-.11-15-.14-29.95h0C1489.16,717,1489.3,710.22,1489.31,703.41Zm-446.53-3.91c-12.44,0-24.88,0-37.31,0-6.47,0-13,0-19.42,0-3.83,0-3.85.1-3.9,4.06,0,2.22,0,4.43,0,6.65.07,4.41.08,4.45,4.51,4.47q20.69,0,41.39.05c.78,8.49-.52,17.09.93,25.51,1.59,9.28-3.07,14.76-10.34,19-2.65,1.54-5.4,2.91-8.17,4.22-2.6,1.24-5.29,2.3-8,3.44h0c-18,4.46-36,5.68-54.1.86l-6.5-2.85c-17.29-7.56-30.09-19.63-37.5-37.19-1.12-2.65-1.48-5.6-3.23-8a2.72,2.72,0,0,0-.2-1,3,3,0,0,0-.8-3.09,98.3,98.3,0,0,1-1.37-15.22,82.37,82.37,0,0,1,2.6-21.55h0q3-7.14,6-14.28h0c1-1.53,2.13-3,3.12-4.58a66.63,66.63,0,0,1,18.53-19.28c4.47-3.09,9.44-5.23,14.08-8h0c10.16-3.49,20.54-5.55,31.35-5.1a101.58,101.58,0,0,1,23.93,4.05c3.92,2,7.94,3.88,11.73,6.12a70.46,70.46,0,0,1,20.67,18.81c.73,1,1.2,2.9,3,1.66,4.14-2.85,8.6-5.25,12.27-8.69-5.21-8.09-14.37-17-21.18-20.75h0c-5.36-3.51-10.68-7.09-16.69-9.48a98,98,0,0,0-51.71-5.92,86.22,86.22,0,0,0-38,15.14,75,75,0,0,0-19.16,17.23c-4.15,5.08-8.11,10.37-10.48,16.62-2.8,5.18-5.29,10.47-6.14,16.37h0a73,73,0,0,0-1.92,31.79c-.23,1.44-.38,2.86.75,4,.1.68.19,1.36.29,2a2.83,2.83,0,0,0,.83,3,2,2,0,0,0,.18,1h0a10.83,10.83,0,0,0,.19,2,81.45,81.45,0,0,0,17.83,32.16c5.21,5.74,10.46,11.55,17.57,15.13h0A64.46,64.46,0,0,0,935,778.92c27.39,10.55,54.64,8.69,81.78-1.19,4.78-1.74,8.68-5.07,13.34-7h0c5.88-2.93,10.49-7.35,14.56-12.4a7.06,7.06,0,0,0,2-4.53c-.07-10.68-.08-21.35-.12-32,.09-6.13.23-12.26.23-18.39C1046.86,699.59,1046.77,699.52,1042.78,699.5ZM626.24,614.94c-3-.14-4.57.91-5.73,3.74-4,9.77-8.44,19.38-12.5,29.14-2.61,6.27-6.08,12.18-8,18.73h0c-1.91,4.14-3.89,8.26-5.72,12.44-6.37,14.56-13,29-18.87,43.8-2.67,4.17-4.19,8.87-6.19,13.36a3.28,3.28,0,0,0-.07,2.93c2.88,6.08,5.56,12.26,9.06,18.29.59-.65,1-1,1.22-1.39,4.74-10.75,10-21.27,14.26-32.23h0c1.22-2.63,2.47-5.24,3.65-7.88,7.17-16,14.63-31.91,21.29-48.16a4.91,4.91,0,0,0,1.57-2.57c5.45-13.07,11.37-25.91,17.16-38.82,1.57-3.51,3.79-6.82,4.47-11.32C636.42,615,631.32,615.17,626.24,614.94ZM679,618.58c0-2.59-.83-3.69-3.5-3.6-4.08.14-8.17.1-12.25,0-2.21,0-3,1-3,3.08q.16,23.19.24,46.39h0a112.64,112.64,0,0,0,0,14.35h0c-.36,13.63-.18,27.26,0,40.9h0c-.37,16.38-.19,32.77,0,49.15-.08,3.9-.13,7.79-.25,11.68-.06,1.78.36,2.92,2.48,2.89q6.86-.09,13.72,0c2.13,0,2.51-1.17,2.46-2.92-.11-3.22-.16-6.44-.23-9.65h0q.1-22,.2-44c0-4.42-.12-8.84-.19-13.27v-29.8a164.42,164.42,0,0,0,0-17.34h0c0-7.81,0-15.63.08-23.44C678.88,634.9,678.86,626.74,679,618.58ZM1539.25,730c0-4.76.38-9.53-.17-14.29h0l.07-47.08a3.41,3.41,0,0,1-.19-.5c.06.16.13.32.19.5q0-20.5-.08-41c.06-3.24.09-6.47.18-9.71.06-1.84-.57-2.89-2.6-2.87q-6.64.06-13.3,0c-2,0-2.71.93-2.66,2.81.11,4.26.15,8.52.21,12.78h0q0,17.48-.05,35h0q-.45,28.1.05,56.19c-.34,16-.23,32.08,0,48.12h0c-.07,3.55-.11,7.1-.23,10.64-.06,1.78.37,2.9,2.48,2.87,4.56-.07,9.12,0,13.69,0,1.67,0,2.49-.65,2.43-2.4-.11-2.7-.13-5.4-.18-8.1l0,0h0C1539.14,758.6,1539.24,744.3,1539.25,730ZM466.89,733.58c0-5.62.42-11.24-.17-16.85h0l.06-48.09a2.2,2.2,0,0,1-.25-.54c.09.17.17.35.25.54q0-20.49-.07-41c.06-3.23.1-6.47.2-9.71,0-1.83-.58-2.89-2.61-2.88q-6.65.08-13.3,0c-2,0-2.71.93-2.66,2.81.1,4.26.15,8.52.22,12.78h0q0,18-.08,36h0q-.39,27.58.07,55.18c-.38,15-.23,30.05,0,45.08-.09,4.4-.11,8.8-.28,13.2-.09,2.23.39,3.51,3,3.42,4.23-.16,8.47-.11,12.71,0,2.15,0,3.07-.76,3-3-.16-3.55-.17-7.1-.24-10.66h0C466.78,757.75,466.9,745.66,466.89,733.58Zm390-57.85-.06,31.86c.07,4.08.19,8.15.19,12.22q0,24.23,0,48.45c0,1.52-.13,3-.21,4.57a11.24,11.24,0,0,0-.64-1.3,2.57,2.57,0,0,0,.64,1.3v16.71c-7.92-7.61-14.67-15.15-21.47-22.64-3.7-3.7-7.44-7.37-11.09-11.13q-13.77-14.22-27.47-28.52c-.93-1-2.08-1.78-2.39-3.2h0c-14.56-14.35-28.47-29.31-42.64-44-3.89-4-7.68-8.2-11.52-12.3h0L728.61,655.1c-2.15,4.94-.91,9.31-1.68,13.54h0l-.06,48.09h0c.58,5.61.16,11.23.17,16.85,0,12.09-.11,24.18-.17,36.26h0c.07,3.55.07,7.11.24,10.65.11,2.21-.81,3-3,3-4.24-.09-8.48-.14-12.71,0-2.62.1-3.11-1.17-3-3.41.18-4.4.2-8.8.28-13.2-.23-15-.37-30,0-45.08q-.48-27.59-.07-55.18,0-15.57-.11-31.14c0-6.81-.09-13.62-.09-20.43,0-1.45-.26-3,.33-4.3,1.52-.2,2,.82,2.71,1.5q21.91,22.85,43.78,45.75c2,2.09,4.33,3.84,5.82,6.38h0q28.06,28.21,55.07,57.45h0c6.51,5.21,11.33,12.08,17.39,17.72,1.31,1.22,2.19,3,4.57,3.54,1-6.16-.19-12.22.54-18.19h0l-.09-2.07c-1.13-1.52-.67-3.28-.67-4.94,0-16-.5-32,.09-48,.48-13.09.3-26.17.68-39.25h0c-.07-4.21-.1-8.43-.23-12.64-.07-2.15.82-3,3-3q5.82.12,11.64,0c3.45-.08,4.65.46,3.81,4.5h0c0,11.41.15,22.82.14,34.23C857,661.08,857.5,668.41,856.93,675.73ZM855.81,666a12.42,12.42,0,0,1,.29,1.43A4.82,4.82,0,0,0,855.81,666ZM571.39,764.77h0c-4-10.61-9.1-20.75-13.62-31.14-1.74-4-2.93-8.3-5.64-11.84h0c-1.67-1.66-1.46-4-2.36-6q-11.37-25-22.59-50.11c-5.09-12.15-10.58-24.12-16.26-36-1.69-4-3.42-8.08-5-12.15A3.63,3.63,0,0,0,502,615c-4.57.07-9.14,0-13.71,0-3.13.06-3.49.52-2.32,3.2,1.83,4.16,3.85,8.24,5.79,12.35h0c3.07,7,6.06,14,9.25,21,2.62,5.69,4.55,11.7,7.81,17.1h0c2.49,5.75,4.89,11.54,7.5,17.24,5.66,12.35,10.9,24.88,17,37h0c.85,4.57,3.43,8.44,5.32,12.56,4.77,10.44,9,21.13,14.27,31.34,3.12,8.19,6.77,16.14,10.86,25,3-6.9,5.43-12.88,8.23-18.68,1.5-3.1,1.64-5.77-.58-8.44Z"/></svg>